<?xml version="1.0" encoding="UTF-8"?>
<svg width="481px" height="475px" viewBox="0 0 481 475" version="1.1" xmlns="http://www.w3.org/2000/svg" xmlns:xlink="http://www.w3.org/1999/xlink">
    <!-- Generator: Sketch 52.6 (67491) - http://www.bohemiancoding.com/sketch -->
    <title>free-icon-web-browser-3534335</title>
    <desc>Created with Sketch.</desc>
    <g id="Page-1" stroke="none" stroke-width="1" fill="none" fill-rule="evenodd">
        <g id="free-icon-web-browser-3534335" transform="translate(0.837838, 0.837838)" fill="#000000">
            <path d="M291.36,473.307042 L270.994286,473.307042 C267.20719,473.307042 264.137143,470.280235 264.137143,466.546479 C264.137143,462.812723 267.20719,459.785915 270.994286,459.785915 L291.36,459.785915 C295.147095,459.785915 298.217143,462.812723 298.217143,466.546479 C298.217143,470.280235 295.147095,473.307042 291.36,473.307042 Z" id="Path"></path>
            <path d="M459.428571,473.307042 L339.36,473.307042 C335.572905,473.307042 332.502857,470.280235 332.502857,466.546479 C332.502857,462.812723 335.572905,459.785915 339.36,459.785915 L459.428571,459.785915 C463.215667,459.785915 466.285714,456.759108 466.285714,453.025352 L466.285714,20.3492958 C466.285714,16.6155397 463.215667,13.5887324 459.428571,13.5887324 L20.5714286,13.5887324 C16.7843331,13.5887324 13.7142857,16.6155397 13.7142857,20.3492958 L13.7142857,453.025352 C13.7142857,456.759108 16.7843331,459.785915 20.5714286,459.785915 L155.04,459.785915 C158.827095,459.785915 161.897143,462.812723 161.897143,466.546479 C161.897143,470.280235 158.827095,473.307042 155.04,473.307042 L20.5714286,473.307042 C9.21014229,473.307042 3.04518315e-15,464.22662 0,453.025352 L0,20.3492958 C-3.04518315e-15,9.14802761 9.21014229,0.0676056338 20.5714286,0.0676056338 L459.428571,0.0676056338 C470.789858,0.0676056338 480,9.14802761 480,20.3492958 L480,453.025352 C480,464.22662 470.789858,473.307042 459.428571,473.307042 Z" id="Path"></path>
            <path d="M222.994286,473.307042 L203.04,473.307042 C199.252905,473.307042 196.182857,470.280235 196.182857,466.546479 C196.182857,462.812723 199.252905,459.785915 203.04,459.785915 L222.994286,459.785915 C226.781381,459.785915 229.851429,462.812723 229.851429,466.546479 C229.851429,470.280235 226.781381,473.307042 222.994286,473.307042 Z" id="Path"></path>
            <path d="M473.142857,108.23662 L6.85714286,108.23662 C3.07004743,108.23662 0,105.209812 0,101.476056 C0,97.7423003 3.07004743,94.715493 6.85714286,94.715493 L473.142857,94.715493 C476.929953,94.715493 480,97.7423003 480,101.476056 C480,105.209812 476.929953,108.23662 473.142857,108.23662 Z" id="Path"></path>
            <path d="M399.771429,78.0304225 C390.582347,78.0331571 382.29654,72.5778555 378.778109,64.2086081 C375.259678,55.8393606 377.201616,46.2045819 383.698297,39.7974694 C390.194978,33.390357 399.96681,31.4728614 408.45668,34.9392105 C416.94655,38.4055596 422.482285,46.5730181 422.482286,55.6326761 C422.467181,67.9937974 412.309132,78.0117985 399.771429,78.0304225 Z M399.771429,46.7628169 C396.128635,46.7600826 392.843121,48.9217988 391.447803,52.2393772 C390.052485,55.5569556 390.822344,59.3765868 393.398189,61.916152 C395.974033,64.4557172 399.848231,65.2147334 403.213203,63.8390676 C406.578176,62.4634019 408.770773,59.2241626 408.768,55.6326761 C408.760448,50.7370756 404.736966,46.7702627 399.771429,46.7628169 Z" id="Shape" fill-rule="nonzero"></path>
            <path d="M336.356571,78.0304225 C327.16749,78.0331571 318.881683,72.5778555 315.363252,64.2086081 C311.844821,55.8393606 313.786759,46.2045819 320.28344,39.7974694 C326.780121,33.390357 336.551953,31.4728614 345.041823,34.9392105 C353.531693,38.4055596 359.067428,46.5730181 359.067429,55.6326761 C359.052323,67.9937974 348.894275,78.0117985 336.356571,78.0304225 Z M336.356571,46.7628169 C332.713778,46.7600826 329.428264,48.9217988 328.032946,52.2393772 C326.637628,55.5569556 327.407487,59.3765868 329.983331,61.916152 C332.559176,64.4557172 336.433374,65.2147334 339.798346,63.8390676 C343.163318,62.4634019 345.355916,59.2241626 345.353143,55.6326761 C345.345591,50.7370756 341.322109,46.7702627 336.356571,46.7628169 Z" id="Shape" fill-rule="nonzero"></path>
            <path d="M272.914286,78.0304225 C263.725204,78.0331571 255.439397,72.5778555 251.920966,64.2086081 C248.402535,55.8393606 250.344473,46.2045819 256.841154,39.7974694 C263.337835,33.390357 273.109667,31.4728614 281.599537,34.9392105 C290.089407,38.4055596 295.625142,46.5730181 295.625143,55.6326761 C295.610038,67.9937974 285.451989,78.0117985 272.914286,78.0304225 Z M272.914286,46.7628169 C269.271492,46.7600826 265.985978,48.9217988 264.59066,52.2393772 C263.195342,55.5569556 263.965201,59.3765868 266.541046,61.916152 C269.11689,64.4557172 272.991088,65.2147334 276.35606,63.8390676 C279.721033,62.4634019 281.91363,59.2241626 281.910857,55.6326761 C281.903305,50.7370756 277.879823,46.7702627 272.914286,46.7628169 Z" id="Shape" fill-rule="nonzero"></path>
            <path d="M219.785143,62.3932394 L64.3611429,62.3932394 C60.5740474,62.3932394 57.504,59.3664321 57.504,55.6326761 C57.504,51.89892 60.5740474,48.8721127 64.3611429,48.8721127 L219.785143,48.8721127 C223.572238,48.8721127 226.642286,51.89892 226.642286,55.6326761 C226.642286,59.3664321 223.572238,62.3932394 219.785143,62.3932394 Z" id="Path"></path>
            <path d="M240,384.081127 C238.483656,384.08492 237.009325,383.590089 235.810286,382.67493 C231.84,379.646197 138.514286,307.889577 138.514286,248.579155 C137.735937,213.730832 165.6944,184.826915 201.037714,183.941408 C215.313752,183.960066 229.120084,188.97169 240,198.084507 C250.888335,188.980888 264.69957,183.981227 278.976,183.975211 C314.300238,184.868091 342.24497,213.749041 341.485714,248.579155 C341.485714,307.889577 248.146286,379.646197 244.176,382.67493 C242.980673,383.587247 241.511648,384.081916 240,384.081127 Z M201.024,197.489577 C173.272137,198.383234 151.466688,221.21388 152.228571,248.579155 C152.228571,294.699718 222.006857,354.091268 240,368.646761 C258.006857,354.091268 327.771429,294.699718 327.771429,248.579155 C328.548598,221.198353 306.730566,198.348862 278.962286,197.462535 C266.076905,197.508755 253.773134,202.756744 244.916571,211.984225 C242.176565,214.627818 237.796006,214.627818 235.056,211.984225 C226.202721,202.760137 213.904611,197.512448 201.024,197.462535 L201.024,197.489577 Z" id="Shape" fill-rule="nonzero"></path>
        </g>
    </g>
</svg>