<?xml version="1.0" encoding="UTF-8"?>
<svg width="100px" height="24px" viewBox="0 0 100 24" version="1.1" xmlns="http://www.w3.org/2000/svg" xmlns:xlink="http://www.w3.org/1999/xlink">
    <!-- Generator: Sketch 52.6 (67491) - http://www.bohemiancoding.com/sketch -->
    <title>アートボード 1</title>
    <desc>Created with Sketch.</desc>
    <defs>
        <linearGradient x1="2.05488898%" y1="8.64054345%" x2="97.6023012%" y2="91.0529368%" id="linearGradient-1">
            <stop stop-color="#60C1C1" offset="0%"></stop>
            <stop stop-color="#5BBFBE" offset="21%"></stop>
            <stop stop-color="#4CB9B5" offset="46%"></stop>
            <stop stop-color="#34AFA6" offset="73%"></stop>
            <stop stop-color="#14A292" offset="100%"></stop>
        </linearGradient>
    </defs>
    <g id="Page-1" stroke="none" stroke-width="1" fill="none" fill-rule="evenodd">
        <g id="アートボード-1" fill="url(#linearGradient-1)" fill-rule="nonzero">
            <path d="M100,1.04727273 L100,23.0082645 C100,23.5559849 99.5593354,24 99.015748,24 L61.3090551,24 L63.2775591,22.0165289 L98.0314961,22.0165289 L98.0314961,2.04099174 L83.1023622,2.04099174 L85.0708661,0.0575206612 L99.015748,0.0575206612 C99.5585676,0.0575195673 99.9989144,0.500327068 100,1.04727273 Z M2.05708661,22.0165289 L2.05708661,2.04099174 L80.3149606,2.04099174 L82.2834646,0.0575206612 L1.06889764,0.0575206612 C0.525310286,0.0575206612 0.0846456693,0.501535785 0.0846456693,1.0492562 L0.0846456693,23.0082645 C0.0846456693,23.5559849 0.525310286,24 1.06889764,24 L58.5177165,24 L60.4862205,22.0165289 L2.05708661,22.0165289 Z M44.75,8.33057851 L44.75,9.87768595 L50.7519685,9.87768595 L50.7519685,8.33057851 L44.75,8.33057851 Z M46.8503937,15.8300826 L48.6476378,15.8300826 L48.6476378,10.2763636 L46.8503937,10.2763636 L46.8503937,15.8300826 Z M64.9704724,13.0016529 L64.9704724,8.33057851 L63.1732283,8.33057851 L63.1732283,15.8300826 L64.9704724,15.8300826 L64.9704724,13.0016529 Z M68.5925197,9.55438017 C68.447965,9.26919376 68.2347769,9.02506158 67.9724409,8.84429752 C67.690944,8.65573781 67.3772729,8.52124588 67.0472441,8.44760331 C66.6724359,8.36367256 66.2894582,8.32242229 65.9055118,8.3246281 L65.3641732,8.3246281 L65.3641732,9.78644628 L65.757874,9.78644628 C65.9139374,9.78581955 66.0698458,9.79642505 66.2244094,9.81818182 C66.3658263,9.83665162 66.5030138,9.87959706 66.6299213,9.94512397 C66.7459776,10.0070381 66.8437591,10.0987211 66.9133858,10.2109091 C66.9874479,10.3431601 67.0235692,10.493551 67.0177165,10.6452893 C67.0232759,10.7982588 66.9871968,10.949846 66.9133858,11.0836364 C66.8421394,11.2006829 66.7425741,11.297593 66.6240157,11.3652893 C66.4947321,11.4373814 66.3543139,11.487002 66.2086614,11.5120661 C66.0489843,11.5420637 65.8868354,11.5566751 65.7244094,11.5557025 L65.3622047,11.5557025 L65.3622047,12.9957406 L65.8622047,12.9957025 C66.2372319,12.9971995 66.6111515,12.9545973 66.976378,12.8687603 C67.3124632,12.7948959 67.6325558,12.6605099 67.9212598,12.4720661 C68.1959481,12.2889803 68.4206562,12.0393764 68.5748031,11.7461157 C68.7445279,11.4029021 68.8270477,11.0226056 68.8149606,10.6393388 C68.8281325,10.2651668 68.7525508,9.89322478 68.5944882,9.55438017 L68.5925197,9.55438017 Z M83.8110236,10.3319008 C83.5915833,9.88795008 83.2687402,9.50412591 82.8700787,9.21322314 C82.4691958,8.93074458 82.0180641,8.72871712 81.5413386,8.61818182 C81.046278,8.49787968 80.5387817,8.43728945 80.0295276,8.43768595 L79.5019685,8.43768402 L79.5019685,9.94115702 L79.988189,9.94115702 C80.2825132,9.94123748 80.575827,9.97585074 80.8622047,10.0442975 C81.1339001,10.1091564 81.3905818,10.2263496 81.6181102,10.3894215 C81.8454322,10.5583781 82.0279703,10.7811329 82.1496063,11.0380165 C82.4147078,11.6935008 82.4147078,12.4274909 82.1496063,13.0829752 C82.0275617,13.3423434 81.845243,13.5682325 81.6181102,13.7414876 C81.3881078,13.9099689 81.1271366,14.0306587 80.8503937,14.0965289 C80.5548389,14.1703473 80.2513467,14.2069899 79.9468504,14.2056198 L79.5019685,14.2056198 L79.5019685,15.7289264 L80.1181102,15.7289256 C80.6163106,15.7291954 81.1120411,15.6584107 81.5905512,15.5186777 C82.0625593,15.3837361 82.5047969,15.1595898 82.8937008,14.8581818 C83.2847594,14.5526257 83.6023566,14.1621026 83.8228346,13.7157025 C84.0698218,13.2013077 84.1906608,12.6346917 84.1751969,12.0634711 C84.1931805,11.4654406 84.0689931,10.8717452 83.8129921,10.3319008 L83.8110236,10.3319008 Z M79.1181102,9.93520661 L79.1181102,8.43173554 L77.4114173,8.43173554 L77.4114173,15.7229752 L79.1181102,15.7229752 L79.1181102,9.93917355 L79.1181102,9.93520661 Z M89.0669291,12.6347107 L89.0669291,8.43570248 L87.3818898,8.43570248 L87.3818898,15.7269421 L89.0688976,15.7269421 L89.0688976,12.6386777 L89.0669291,12.6347107 Z M92.9055118,12.9540496 C92.8310931,12.7675306 92.7237116,12.5961612 92.5885827,12.4482645 C92.4556198,12.3057751 92.2990912,12.1876539 92.1259843,12.0991736 C91.9452531,12.0029591 91.7506116,11.9360234 91.5492126,11.9008264 L91.5492126,11.8809917 C91.8821733,11.7755304 92.1780378,11.5758696 92.4015748,11.3057851 C92.6265905,11.0216405 92.7425844,10.6653805 92.7283465,10.3021488 C92.7629497,9.6917568 92.4498745,9.11470394 91.9212598,8.81454545 C91.6739608,8.67058348 91.4044889,8.56934981 91.1240157,8.51504132 C90.8413747,8.45822714 90.5539559,8.42900104 90.265748,8.4277686 L89.4527559,8.4277686 L89.4527559,9.82809917 L89.9271654,9.82809917 C90.2153703,9.8108319 90.5030597,9.86962766 90.761811,9.99867769 C90.9487799,10.1117068 91.0568342,10.3210243 91.0413386,10.5401653 C91.056351,10.7715656 90.9550414,10.995098 90.7716535,11.1352066 C90.5451889,11.2814478 90.27827,11.3509435 90.0098425,11.3335537 L89.4527559,11.3335537 L89.4527559,12.6327273 L90.0433071,12.6327273 C90.3526263,12.6188116 90.6608413,12.6786128 90.9429134,12.8072727 C91.1718122,12.9283483 91.3055338,13.176674 91.2814961,13.4360331 C91.288037,13.5894988 91.2489678,13.741439 91.1692913,13.8723967 C91.0950886,13.9830474 90.995044,14.073636 90.8779528,14.1361983 C90.7540341,14.1987975 90.6212172,14.241622 90.484252,14.2631405 C90.3445272,14.2880436 90.2029173,14.3006531 90.0610236,14.3008264 L89.4704724,14.3008264 L89.4704724,15.7209917 L90.2834646,15.7209917 C90.6248506,15.7215243 90.9653326,15.6856216 91.2992126,15.6138843 C91.6051311,15.5507966 91.8980752,15.4354114 92.1653543,15.2727273 C92.423436,15.1093497 92.6377231,14.8845786 92.7893701,14.6181818 C92.9554647,14.3108239 93.0370186,13.9643237 93.0255906,13.6145455 C93.0318465,13.3903648 92.9937021,13.1671756 92.9133858,12.9580165 L92.9055118,12.9540496 Z M39.7834646,12.6168595 C40.2288238,12.4932727 40.6254809,12.2342125 40.9192913,11.8750413 C41.1985102,11.5083817 41.3431813,11.0556506 41.3287402,10.593719 C41.3417084,10.2183969 41.2583096,9.84605611 41.0866142,9.51272727 C40.9316445,9.23004308 40.7098725,8.99023421 40.4409449,8.81454545 C40.1609917,8.63411327 39.8508392,8.50642072 39.5255906,8.43768595 C39.1820244,8.36364413 38.8316516,8.32641238 38.480315,8.32661157 L37.7066929,8.32661078 L37.7066929,9.78842975 L38.3484252,9.78842975 C38.4881205,9.78858902 38.6276114,9.79919668 38.765748,9.82016529 C38.9029437,9.83840786 39.0360693,9.87999057 39.1594488,9.9431405 C39.2743373,10.0021341 39.3725325,10.0894759 39.4448819,10.1970248 C39.5241542,10.3251547 39.5626213,10.4746562 39.5551181,10.6254545 C39.5627126,10.7894783 39.5208505,10.9519765 39.4350394,11.0915702 C39.3571052,11.2100644 39.2490066,11.3052842 39.1220472,11.3672727 C38.9889753,11.4324521 38.8469897,11.4772435 38.7007874,11.5001653 C38.55032,11.5235773 38.3983134,11.535512 38.246063,11.5358678 L37.7106299,11.5358678 L37.7106299,12.8489256 L38.0137795,12.8489256 L39.6299213,15.8241322 L41.7322835,15.8241322 L39.7834646,12.6168595 Z M37.3149606,8.33057851 L35.6437008,8.33057851 L35.6437008,15.8300826 L37.3149606,15.8300826 M10.8720472,9.76066116 C11.0070378,9.82576625 11.1333587,9.90773278 11.2480315,10.0046281 L12.4074803,8.83636364 C12.1927229,8.67078443 11.9587088,8.53223913 11.7106299,8.42380165 L10.511811,9.63173554 C10.6357351,9.66290457 10.7563758,9.7060809 10.8720472,9.76066116 Z M11.7913386,11.9008264 C11.5629498,11.7330163 11.3116567,11.5993995 11.0452756,11.5041322 C10.7716535,11.4009917 10.507874,11.3057851 10.257874,11.2224793 C10.0826772,11.1669421 9.92519685,11.111405 9.78543307,11.0598347 C9.6593026,11.0129657 9.53799638,10.9538443 9.42322835,10.8833058 C9.32973421,10.8284308 9.25020638,10.7523728 9.19094488,10.661157 C9.13578875,10.5648615 9.10851116,10.4549215 9.11220472,10.3438017 C9.10672786,10.2145358 9.14185937,10.0868231 9.21259843,9.97884298 C9.27872379,9.88473476 9.36310099,9.80511402 9.46062992,9.74479339 C9.56225408,9.68369678 9.67448513,9.64263638 9.79133858,9.62380165 C9.85984597,9.61391954 9.92885437,9.60795956 9.9980315,9.60595041 L11.3129921,8.28099174 C10.948208,8.16355393 10.5679747,8.10204008 10.1850394,8.0985124 C9.83375109,8.09834559 9.48385552,8.14299823 9.14370079,8.23140496 C8.81288316,8.31385851 8.49949043,8.45562158 8.21850394,8.64991736 C7.9455194,8.83903873 7.71924129,9.08875145 7.55708661,9.37983471 C7.38158307,9.70779801 7.29469205,10.0764726 7.30511811,10.4489256 C7.29624408,10.7457539 7.35201325,11.0409375 7.46850394,11.313719 C7.57198031,11.5381813 7.71772114,11.740267 7.8976378,11.9087603 C8.07872132,12.0761092 8.28460943,12.2139655 8.50787402,12.3173554 C8.73531507,12.4222524 8.96865358,12.5136483 9.20669291,12.5910744 C9.45275591,12.6704132 9.67125984,12.7418182 9.86417323,12.8092562 C10.0331535,12.8652753 10.1955385,12.9397688 10.3484252,13.031405 C10.4647962,13.1006232 10.5664743,13.1922901 10.6476378,13.301157 C10.7189698,13.4075595 10.7554528,13.5337935 10.7519685,13.6621488 C10.7556619,13.7942121 10.7265665,13.9251143 10.6673228,14.0429752 C10.6149779,14.1453264 10.5377783,14.2326657 10.4429134,14.2968595 C10.3413132,14.3631206 10.228579,14.4101702 10.1102362,14.4357025 C9.98093805,14.4642321 9.84889484,14.4782021 9.71653543,14.4773554 C9.40678879,14.4737202 9.10239432,14.3955129 8.82874016,14.2492562 C8.55079075,14.1147329 8.30501236,13.9212163 8.10826772,13.6819835 L6.92716535,14.8899174 C7.27486098,15.2465045 7.69913665,15.5179341 8.16732283,15.6833058 C8.66121767,15.8707757 9.18482278,15.9662117 9.71259843,15.9649587 C10.0714458,15.9657432 10.4286191,15.9156658 10.773622,15.8161983 C11.1048249,15.724351 11.4155287,15.5695011 11.6889764,15.36 C11.9569727,15.1530548 12.1744575,14.8871034 12.3248031,14.5824793 C12.4898128,14.2342172 12.5707551,13.8515754 12.5610236,13.4657851 C12.5730204,13.1387293 12.4968292,12.814511 12.3405512,12.5276033 C12.1995371,12.2847785 12.0130041,12.0719017 11.7913386,11.9008264 Z M27.6909449,12.9044628 L28.0019685,12.0317355 L27.6830709,12.9044628 L27.6909449,12.9044628 Z M27.7874016,8.32859504 L24.6653543,15.8261157 L26.6200787,15.8261157 L27.1673228,14.3543802 L27.6889764,12.9044628 L28.007874,12.0317355 L28.4547244,10.7900826 L28.4547244,8.33057851 L27.7874016,8.32859504 Z M32.6220472,15.8261157 L29.5275591,8.33057851 L28.8366142,8.33057851 L28.8366142,10.8198347 L30.6417323,15.8280992 L32.6220472,15.8261157 Z M56.3149606,14.1699174 C56.1453424,14.0922437 55.9972917,13.97372 55.8838583,13.8247934 C55.7727512,13.6778877 55.6905651,13.5109191 55.6417323,13.3328926 C55.5881977,13.1432532 55.5616858,12.9469095 55.5629921,12.7497521 L55.5629921,8.22743802 L53.773622,8.22743802 L53.773622,12.9024793 C53.7687994,13.3240858 53.8436202,13.742768 53.9940945,14.1361983 C54.1341378,14.4963247 54.3496755,14.8217511 54.6259843,15.0902479 C54.913278,15.3644389 55.2537399,15.5758067 55.6259843,15.7110744 C55.993578,15.8432347 56.3795465,15.9161959 56.769685,15.9272727 L56.769685,14.2809917 C56.6131664,14.2716172 56.4593837,14.2353946 56.3149606,14.1738843 L56.3149606,14.1699174 Z M58.3602362,8.21950413 L58.3602362,12.753719 C58.3615125,12.9504806 58.337023,13.1465521 58.2874016,13.3368595 C58.2399955,13.5154321 58.1576774,13.6826687 58.0452756,13.8287603 C57.928894,13.9771577 57.7790854,14.095468 57.6082677,14.1738843 C57.4667347,14.2340373 57.3165239,14.270871 57.1633858,14.2829752 L57.1633858,15.9252893 C57.5414346,15.910773 57.9151095,15.8385461 58.2716535,15.7110744 C58.6479694,15.5745235 58.9933406,15.3634322 59.2874016,15.0902479 C59.5684959,14.8229615 59.7887729,14.4974772 59.9330709,14.1361983 C60.0883508,13.7439707 60.1652799,13.3247208 60.1594488,12.9024793 L60.1594488,8.22743802 L58.3602362,8.21950413 Z M15.6437008,8.32264463 L15.6437008,9.86975207 L21.6535433,9.86975207 L21.6535433,8.33057851 L15.6437008,8.32264463 Z M17.746063,15.8221488 L19.5433071,15.8221488 L19.5433071,10.2684298 L17.746063,10.2684298 L17.746063,15.8221488 Z" id="Shape"></path>
        </g>
    </g>
</svg>